# xmcd
#
# Track frame offsets: 
#        150
#        13119
#        28000
#        47160
#        58618
#        71542
#        82695
#        97816
#        108988
#        118696
#        133411
#        144777
#        155207
#        167374
#        185432
#        200107
#        220703
#        230615
#        246153
#        268885
#        298840
#        313454
#        329833
#
# Disc length: 4642 seconds
#
# Revision: 0
# Processed by: cddbd v1.5.2PL0 Copyright (c) Steve Scherf et al.
# Submitted via: ExactAudioCopyFreeDBPlugin 1.0
#
DISCID=5f122017
DTITLE=葉振棠 - 我來自潮州 2
DYEAR=1900
DGENRE=
TTITLE0=大俠霍元甲
TTITLE1=醉紅塵
TTITLE2=碧血青天
TTITLE3=遊俠張三豐
TTITLE4=南海十三郎
TTITLE5=三國演義
TTITLE6=笑傲江湖
TTITLE7=大內群英
TTITLE8=太極張三豐
TTITLE9=難為正邪定分界
TTITLE10=逐我英雄愿
TTITLE11=浴血太平山
TTITLE12=戲劇人生
TTITLE13=愛在深秋
TTITLE14=雙星情歌
TTITLE15=離開你
TTITLE16=浮生六劫
TTITLE17=獅子山下
TTITLE18=漁舟唱晚
TTITLE19=恨綿綿
TTITLE20=天長地久
TTITLE21=相愛千萬年
TTITLE22=願你待我真的好
EXTD=
EXTT0=
EXTT1=
EXTT2=
EXTT3=
EXTT4=
EXTT5=
EXTT6=
EXTT7=
EXTT8=
EXTT9=
EXTT10=
EXTT11=
EXTT12=
EXTT13=
EXTT14=
EXTT15=
EXTT16=
EXTT17=
EXTT18=
EXTT19=
EXTT20=
EXTT21=
EXTT22=
PLAYORDER=
